<svg id="Capa_1" enable-background="new 0 0 450.824 450.824" height="512" viewBox="0 0 450.824 450.824" width="512" xmlns="http://www.w3.org/2000/svg"><path d="m446.696 60.48c-2.642-2.642-6.219-4.127-9.961-4.127h-112.706c-7.787 0-14.088 6.301-14.088 14.088v70.441h-98.618c-7.773 0-14.088 6.301-14.088 14.088v70.469l-70.441-.028c-3.728 0-7.319 1.486-9.961 4.127-2.642 2.642-4.127 6.219-4.127 9.961v70.441h-70.414c-3.728 0-7.319 1.458-9.961 4.1s-4.127 6.219-4.127 9.961l-.028 112.733c0 3.728 1.486 7.319 4.127 9.961 2.642 2.642 6.219 4.127 9.961 4.127l394.442-.027c7.787 0 14.088-6.301 14.088-14.088l.027-366.266c.002-3.741-1.484-7.318-4.125-9.961zm-24.049 362.166h-366.294v-84.557l70.441.028c3.728 0 7.319-1.486 9.961-4.127 2.642-2.642 4.127-6.219 4.127-9.961v-70.441h70.414c3.728 0 7.319-1.458 9.961-4.1s4.127-6.219 4.127-9.961l.028-70.469h98.618c7.787 0 14.088-6.301 14.088-14.088v-70.441h84.529z"/><path d="m169.059 79.695v-79.695h-79.695l29.886 29.886-119.249 119.542 19.631 19.631 119.542-119.25z"/></svg>